<svg xmlns="http://www.w3.org/2000/svg" xmlns:xlink="http://www.w3.org/1999/xlink" viewBox="0 0 280 250" preserveAspectRatio="xMidYMid" style="display: block; shape-rendering: auto; background: transparent;" width="280" height="250"><style type="text/css">
  .ld-text text {
    text-anchor: middle;
    dominant-baseline: middle;
    font-size: 63px;
    opacity: 0;
    user-select: none;
    pointer-events: none;
  }
</style>
<g style="transform-origin:140px 125px;transform:scale(1)" class="ld-text">
<g transform="translate(140,125)">
  <g transform="scale(0.7875) translate(0,0)"><g class="path" style="opacity: 1; transform-origin: -63.24px -3.03px; transform: matrix3d(0.91, 0, 0, 0, 0, 0.91, 0, 0, 0, 0, 0.91, 0, 0, 0, 0, 1); animation: 0.657895s linear -0.37218s infinite normal forwards running animate-wmar4nxjqp; transform-box: view-box;"><path d="M37.44-4.05L48.80-6.05L47.68 28.75L48.64 49.55L37.44 49.55L38.40 30.11L38.24 25.87L16.72 25.87L16.64 28.75L17.60 49.55L6.40 49.55L7.36 30.11L6.40-4.05L17.76-6.05L16.96 17.39L38 17.39L37.44-4.05" style="fill: rgb(0, 0, 0);" transform="translate(-90.840,-24.777)"></path></g><g class="path" style="opacity: 1; transform-origin: -17.92px 4.61px; transform: matrix3d(0.91, 0, 0, 0, 0, 0.91, 0, 0, 0, 0, 0.91, 0, 0, 0, 0, 1); animation: 0.657895s linear -0.31015s infinite normal forwards running animate-wmar4nxjqp; transform-box: view-box;"><path d="M74.24 41.39L74.24 41.39Q76.56 41.39 79.12 40.19Q81.68 38.99 83.12 37.79L83.12 37.79L84.56 36.59L88.24 41.07Q87.44 42.43 85.76 44.19Q84.08 45.95 82.36 47.19Q80.64 48.43 77.80 49.43Q74.96 50.43 71.92 50.43L71.92 50.43Q65.44 50.43 61.36 45.51Q57.28 40.59 57.28 32.83L57.28 32.83Q57.28 23.07 62.96 15.71Q68.64 8.35 76.24 8.35L76.24 8.35Q82.08 8.35 85.32 11.63Q88.56 14.91 88.56 20.83L88.56 20.83Q88.56 24.35 87.36 28.83L87.36 28.83L85.76 30.51L65.76 32.35Q67.12 41.39 74.24 41.39 zM74.24 16.59L74.24 16.59Q70.72 16.59 68.32 19.43Q65.92 22.27 65.52 26.67L65.52 26.67L79.12 24.99Q79.36 23.15 79.36 21.95L79.36 21.95Q79.36 16.59 74.24 16.59" style="fill: rgb(0, 0, 0);" transform="translate(-90.840,-24.777)"></path></g><g class="path" style="opacity: 1; transform-origin: 10.16px -6.19px; transform: matrix3d(0.91, 0, 0, 0, 0, 0.91, 0, 0, 0, 0, 0.91, 0, 0, 0, 0, 1); animation: 0.657895s linear -0.24812s infinite normal forwards running animate-wmar4nxjqp; transform-box: view-box;"><path d="M95.52-10.37L106.48-12.37L105.44 28.75L106.32 47.55L95.52 49.55L96.48 30.11L95.52-10.37" style="fill: rgb(0, 0, 0);" transform="translate(-90.840,-24.777)"></path></g><g class="path" style="opacity: 1; transform-origin: 30.4px -6.19px; transform: matrix3d(0.91, 0, 0, 0, 0, 0.91, 0, 0, 0, 0, 0.91, 0, 0, 0, 0, 1); animation: 0.657895s linear -0.18609s infinite normal forwards running animate-wmar4nxjqp; transform-box: view-box;"><path d="M115.76-10.37L126.72-12.37L125.68 28.75L126.56 47.55L115.76 49.55L116.72 30.11L115.76-10.37" style="fill: rgb(0, 0, 0);" transform="translate(-90.840,-24.777)"></path></g><g class="path" style="opacity: 1; transform-origin: 59.8px 4.61px; transform: matrix3d(0.91, 0, 0, 0, 0, 0.91, 0, 0, 0, 0, 0.91, 0, 0, 0, 0, 1); animation: 0.657895s linear -0.12406s infinite normal forwards running animate-wmar4nxjqp; transform-box: view-box;"><path d="M133.60 32.83Q133.60 22.59 139.12 15.47Q144.64 8.35 152.04 8.35Q159.44 8.35 163.56 13.15Q167.68 17.95 167.68 25.87L167.68 25.87Q167.68 36.43 162.36 43.43Q157.04 50.43 148.96 50.43L148.96 50.43Q142.32 50.43 137.96 45.43Q133.60 40.43 133.60 32.83L133.60 32.83 zM158.72 30.03L158.72 30.03Q158.72 18.43 150.80 18.43L150.80 18.43Q142.56 18.43 142.56 29.31L142.56 29.31Q142.56 34.99 144.88 38.19Q147.20 41.39 151 41.39Q154.80 41.39 156.76 38.47Q158.72 35.55 158.72 30.03" style="fill: rgb(0, 0, 0);" transform="translate(-90.840,-24.777)"></path></g><g class="path" style="opacity: 1; transform-origin: 88.08px 19.09px; transform: matrix3d(0.91, 0, 0, 0, 0, 0.91, 0, 0, 0, 0, 0.91, 0, 0, 0, 0, 1); animation: 0.657895s linear -0.0620301s infinite normal forwards running animate-wmar4nxjqp; transform-box: view-box;"><path d="M173.12 44.31Q173.12 41.63 175.04 39.67Q176.96 37.71 179.52 37.71Q182.08 37.71 183.40 39.11Q184.72 40.51 184.72 43.23Q184.72 45.95 182.88 47.99Q181.04 50.03 178.52 50.03Q176 50.03 174.56 48.51Q173.12 46.99 173.12 44.31" style="fill: rgb(0, 0, 0);" transform="translate(-90.840,-24.777)"></path></g><g class="path" style="opacity: 1; transform-origin: 91.2px -12.95px; transform: matrix3d(0.91, 0, 0, 0, 0, 0.91, 0, 0, 0, 0, 0.91, 0, 0, 0, 0, 1); animation: 0.657895s linear 0s infinite normal forwards running animate-wmar4nxjqp; transform-box: view-box;"><path d="M176-4.45L188.08-6.45L183.60 28.99L176 30.11L176-4.45" style="fill: rgb(0, 0, 0);" transform="translate(-90.840,-24.777)"></path></g></g><text dy="0.35em" fill="#000000" font-family="Acme" font-size="63">Hello!</text>
</g>
</g><style type="text/css">@keyframes animate-wmar4nxjqp { 0.00% {transform: translate(0.00px,0.00px) rotate(0.00deg) scale(0.91, 0.91) skew(0deg, 0.00deg) ;opacity: 1.00;}4.00% {transform: translate(0.00px,0.00px) rotate(0.00deg) scale(0.91, 0.91) ;}8.00% {animation-timing-function: cubic-bezier(0.69,0.60,0.35,0.27);transform: translate(0.00px,0.00px) rotate(0.00deg) scale(0.91, 0.91) ;}14.00% {transform: translate(0.00px,0.00px) rotate(0.00deg) scale(0.93, 0.93) ;}18.00% {transform: translate(0.00px,0.00px) rotate(0.00deg) scale(0.94, 0.94) ;}22.00% {animation-timing-function: cubic-bezier(0.67,0.66,0.34,0.33);transform: translate(0.00px,0.00px) rotate(0.00deg) scale(0.96, 0.96) ;}26.00% {transform: translate(0.00px,0.00px) rotate(0.00deg) scale(0.97, 0.97) ;}30.00% {transform: translate(0.00px,0.00px) rotate(0.00deg) scale(0.99, 0.99) ;}34.00% {animation-timing-function: cubic-bezier(0.65,0.71,0.32,0.38);transform: translate(0.00px,0.00px) rotate(0.00deg) scale(1.01, 1.01) ;}40.00% {animation-timing-function: cubic-bezier(0.64,0.74,0.31,0.41);transform: translate(0.00px,0.00px) rotate(0.00deg) scale(1.02, 1.02) ;}46.00% {animation-timing-function: cubic-bezier(0.60,0.91,0.23,0.63);transform: translate(0.00px,0.00px) rotate(0.00deg) scale(1.03, 1.03) ;}50.00% {transform: translate(0.00px,0.00px) rotate(0.00deg) scale(1.03, 1.03) ;}54.00% {transform: translate(0.00px,0.00px) rotate(0.00deg) scale(1.03, 1.03) ;}58.00% {animation-timing-function: cubic-bezier(0.69,0.60,0.35,0.27);transform: translate(0.00px,0.00px) rotate(0.00deg) scale(1.03, 1.03) ;}64.00% {transform: translate(0.00px,0.00px) rotate(0.00deg) scale(1.01, 1.01) ;}68.00% {transform: translate(0.00px,0.00px) rotate(0.00deg) scale(1.00, 1.00) ;}72.00% {animation-timing-function: cubic-bezier(0.67,0.66,0.34,0.33);transform: translate(0.00px,0.00px) rotate(0.00deg) scale(0.98, 0.98) ;}76.00% {animation-timing-function: cubic-bezier(0.66,0.68,0.33,0.35);transform: translate(0.00px,0.00px) rotate(0.00deg) scale(0.97, 0.97) ;}82.00% {animation-timing-function: cubic-bezier(0.65,0.71,0.32,0.38);transform: translate(0.00px,0.00px) rotate(0.00deg) scale(0.94, 0.94) ;}88.00% {animation-timing-function: cubic-bezier(0.65,0.73,0.31,0.40);transform: translate(0.00px,0.00px) rotate(0.00deg) scale(0.92, 0.92) ;}94.00% {animation-timing-function: cubic-bezier(0.63,0.80,0.28,0.48);transform: translate(0.00px,0.00px) rotate(0.00deg) scale(0.91, 0.91) ;}100.00% {animation-timing-function: cubic-bezier(0.63,0.80,0.28,0.48);transform: translate(0.00px,0.00px) rotate(0.00deg) scale(0.91, 0.91) ;} }</style><!-- [ldio] generated by https://loading.io --></svg>