<svg xmlns="http://www.w3.org/2000/svg" xmlns:xlink="http://www.w3.org/1999/xlink" viewBox="0 0 280 250" preserveAspectRatio="xMidYMid" width="280" height="250" style="display:block;shape-rendering:auto;background-position-x:0%;background-position-y:0%;background-size:auto;background-origin:padding-box;background-clip:border-box;background:scroll rgba(0, 0, 0, 0) none  repeat;width:280px;height:250px;;animation:none"><style type="text/css">.ld-text text {
    text-anchor: middle;
    dominant-baseline: middle;
    font-size: 68px;
    opacity: 0;
    user-select: none;
    pointer-events: none;
  }</style>


<g class="ld-text" style="transform-origin:140px 125px;transform:matrix(1, 0, 0, 1, 0, 0);;animation:none"><g transform="matrix(1,0,0,1,140,125)" style="transform:matrix(1, 0, 0, 1, 140, 125);;animation:none"><g transform="matrix(0.8500000238418579,0,0,0.8500000238418579,0,0)" style="transform:matrix(0.85, 0, 0, 0.85, 0, 0);;animation:none"><g class="path" style="transform-origin:-138.48px -1.88px;transform:matrix(1.02597, 0, 0, 1.02597, 0, 0);animation-duration:33.3333s;animation-timing-function:linear;animation-delay:-19.8s;animation-iteration-count:infinite;animation-direction:normal;animation-fill-mode:forwards;animation-play-state:paused;animation-name:animate-337o0vhmt8y;animation-timeline:auto;animation-range-start:normal;animation-range-end:normal;transform-box:view-box;;animation:none"><path d="M1.20-2.24L1.20-3.76L24.72-3.76Q36.80-3.76 42.72-0.28Q48.64 3.20 48.64 12.16L48.64 12.16Q48.64 22.08 41.44 25.84L41.44 25.84Q34.72 29.28 22.64 29.28L22.64 29.28L22 29.28L22 50.72L32 50.72L32 52.24L1.20 52.24L1.20 50.72L6.40 50.72L6.40-2.24L1.20-2.24 zM24.16-2.24L22-2.24L22 27.76L23.68 27.76Q28.48 27.76 30.32 24.48Q32.16 21.20 32.16 13.84L32.16 13.84L32.16 10Q32.16 3.20 30.44 0.48Q28.72-2.24 24.16-2.24L24.16-2.24" transform="matrix(1,0,0,1,-163.39999389648438,-26.1200008392334)" style="transform:matrix(1, 0, 0, 1, -163.4, -26.12);;animation:none"></path></g>
<g class="path" style="transform-origin:-93.36px 7.08px;transform:matrix(1.03, 0, 0, 1.03, 0, 0);animation-duration:33.3333s;animation-timing-function:linear;animation-delay:-17.6s;animation-iteration-count:infinite;animation-direction:normal;animation-fill-mode:forwards;animation-play-state:paused;animation-name:animate-337o0vhmt8y;animation-timeline:auto;animation-range-start:normal;animation-range-end:normal;transform-box:view-box;;animation:none"><path d="M74.96 36.48L74.96 36.48L74.96 29.68Q74.96 21.92 74.12 18.36Q73.28 14.80 70.24 14.80L70.24 14.80Q68.48 14.80 67.40 15.80Q66.32 16.80 65.84 19.12L65.84 19.12Q65.12 22.72 65.12 30.08L65.12 30.08L65.12 36.32Q65.12 45.04 65.64 46.80Q66.16 48.56 66.72 49.68L66.72 49.68Q67.60 51.60 70.16 51.60L70.16 51.60Q73.28 51.60 74.24 48L74.24 48Q74.96 45.44 74.96 36.48 zM70 53.04Q60 53.04 54.88 47.92Q49.76 42.80 49.76 33.24Q49.76 23.68 55.24 18.52Q60.72 13.36 70.64 13.36Q80.56 13.36 85.44 18.12Q90.32 22.88 90.32 32.64L90.32 32.64Q90.32 53.04 70 53.04L70 53.04" transform="matrix(1,0,0,1,-163.39999389648438,-26.1200008392334)" style="transform:matrix(1, 0, 0, 1, -163.4, -26.12);;animation:none"></path></g>
<g class="path" style="transform-origin:-51.6px 6.68px;transform:matrix(1.03, 0, 0, 1.03, 0, 0);animation-duration:33.3333s;animation-timing-function:linear;animation-delay:-15.4s;animation-iteration-count:infinite;animation-direction:normal;animation-fill-mode:forwards;animation-play-state:paused;animation-name:animate-337o0vhmt8y;animation-timeline:auto;animation-range-start:normal;animation-range-end:normal;transform-box:view-box;;animation:none"><path d="M119.28 16.40L119.28 16.40Q116.32 16.40 114.08 20.24Q111.84 24.08 111.84 29.36L111.84 29.36L111.84 50.80L117.52 50.80L117.52 52.24L92.56 52.24L92.56 50.80L96.96 50.80L96.96 15.60L92.56 15.60L92.56 14.16L111.84 14.16L111.84 21.84Q112.88 17.76 115.84 15.56Q118.80 13.36 122.56 13.36Q126.32 13.36 128.68 15.48Q131.04 17.60 131.04 21.48Q131.04 25.36 129.28 27.44Q127.52 29.52 123.88 29.52Q120.24 29.52 118.52 27.12Q116.80 24.72 118.08 20.48L118.08 20.48L120.96 20.48Q122.96 16.40 119.28 16.40" transform="matrix(1,0,0,1,-163.39999389648438,-26.1200008392334)" style="transform:matrix(1, 0, 0, 1, -163.4, -26.12);;animation:none"></path></g>
<g class="path" style="transform-origin:-16.08px 0.48px;transform:matrix(1.01939, 0, 0, 1.01939, 0, 0);animation-duration:33.3333s;animation-timing-function:linear;animation-delay:-13.2s;animation-iteration-count:infinite;animation-direction:normal;animation-fill-mode:forwards;animation-play-state:paused;animation-name:animate-337o0vhmt8y;animation-timeline:auto;animation-range-start:normal;animation-range-end:normal;transform-box:view-box;;animation:none"><path d="M136.16 40.80L136.16 40.80L136.16 15.60L131.76 15.60L131.76 14.16L136.16 14.16L136.16 3.84L151.04 0.16L151.04 14.16L161.44 14.16L161.44 15.60L151.04 15.60L151.04 42.56Q151.04 46.32 151.80 48.08Q152.56 49.84 154.96 49.84Q157.36 49.84 159.16 47.44Q160.96 45.04 161.52 40.88L161.52 40.88L162.88 41.04Q162.24 46.56 159.36 49.80Q156.48 53.04 149.84 53.04Q143.20 53.04 139.68 50.40Q136.16 47.76 136.16 40.80" transform="matrix(1,0,0,1,-163.39999389648438,-26.1200008392334)" style="transform:matrix(1, 0, 0, 1, -163.4, -26.12);;animation:none"></path></g>
<g class="path" style="transform-origin:18.28px -4.8px;transform:matrix(1.005, 0, 0, 1.005, 0, 0);animation-duration:33.3333s;animation-timing-function:linear;animation-delay:-11s;animation-iteration-count:infinite;animation-direction:normal;animation-fill-mode:forwards;animation-play-state:paused;animation-name:animate-337o0vhmt8y;animation-timeline:auto;animation-range-start:normal;animation-range-end:normal;transform-box:view-box;;animation:none"><path d="M187.92-8.24L187.92-8.24Q184.88-8.24 183.92-5.96Q182.96-3.68 182.96 1.36L182.96 1.36L182.96 14.16L193.52 14.16L193.52 15.60L182.96 15.60L182.96 50.80L192.72 50.80L192.72 52.24L163.68 52.24L163.68 50.80L168.08 50.80L168.08 15.60L163.44 15.60L163.44 14.16L168.08 14.16L168.08 13.84Q168.08 2.32 172.48-3.64Q176.88-9.60 187.20-9.60L187.20-9.60Q194-9.60 196.96-6.92Q199.92-4.24 199.92-0.72Q199.92 2.80 198.08 4.56Q196.24 6.32 193.20 6.32Q190.16 6.32 188.52 4.76Q186.88 3.20 186.88 1.16Q186.88-0.88 187.36-2.80L187.36-2.80L190.40-2.80Q192-8.24 187.92-8.24" transform="matrix(1,0,0,1,-163.39999389648438,-26.1200008392334)" style="transform:matrix(1, 0, 0, 1, -163.4, -26.12);;animation:none"></path></g>
<g class="path" style="transform-origin:50.24px 7.08px;transform:matrix(0.972, 0, 0, 0.972, 0, 0);animation-duration:33.3333s;animation-timing-function:linear;animation-delay:-8.8s;animation-iteration-count:infinite;animation-direction:normal;animation-fill-mode:forwards;animation-play-state:paused;animation-name:animate-337o0vhmt8y;animation-timeline:auto;animation-range-start:normal;animation-range-end:normal;transform-box:view-box;;animation:none"><path d="M218.56 36.48L218.56 36.48L218.56 29.68Q218.56 21.92 217.72 18.36Q216.88 14.80 213.84 14.80L213.84 14.80Q212.08 14.80 211 15.80Q209.92 16.80 209.44 19.12L209.44 19.12Q208.72 22.72 208.72 30.08L208.72 30.08L208.72 36.32Q208.72 45.04 209.24 46.80Q209.76 48.56 210.32 49.68L210.32 49.68Q211.20 51.60 213.76 51.60L213.76 51.60Q216.88 51.60 217.84 48L217.84 48Q218.56 45.44 218.56 36.48 zM213.60 53.04Q203.60 53.04 198.48 47.92Q193.36 42.80 193.36 33.24Q193.36 23.68 198.84 18.52Q204.32 13.36 214.24 13.36Q224.16 13.36 229.04 18.12Q233.92 22.88 233.92 32.64L233.92 32.64Q233.92 53.04 213.60 53.04L213.60 53.04" transform="matrix(1,0,0,1,-163.39999389648438,-26.1200008392334)" style="transform:matrix(1, 0, 0, 1, -163.4, -26.12);;animation:none"></path></g>
<g class="path" style="transform-origin:84.48px -3.88px;transform:matrix(0.949, 0, 0, 0.949, 0, 0);animation-duration:33.3333s;animation-timing-function:linear;animation-delay:-6.6s;animation-iteration-count:infinite;animation-direction:normal;animation-fill-mode:forwards;animation-play-state:paused;animation-name:animate-337o0vhmt8y;animation-timeline:auto;animation-range-start:normal;animation-range-end:normal;transform-box:view-box;;animation:none"><path d="M235.84-6.32L235.84-7.76L255.44-7.76L255.44 50.80L259.92 50.80L259.92 52.24L236.16 52.24L236.16 50.80L240.56 50.80L240.56-6.32L235.84-6.32" transform="matrix(1,0,0,1,-163.39999389648438,-26.1200008392334)" style="transform:matrix(1, 0, 0, 1, -163.4, -26.12);;animation:none"></path></g>
<g class="path" style="transform-origin:110px -24.92px;transform:matrix(0.926989, 0, 0, 0.926989, 0, 0);animation-duration:33.3333s;animation-timing-function:linear;animation-delay:-4.4s;animation-iteration-count:infinite;animation-direction:normal;animation-fill-mode:forwards;animation-play-state:paused;animation-name:animate-337o0vhmt8y;animation-timeline:auto;animation-range-start:normal;animation-range-end:normal;transform-box:view-box;;animation:none"><path d="M273.20 8.64Q268.96 8.64 267.16 6.48Q265.36 4.32 265.36 1.12Q265.36-2.08 267.32-4.16Q269.28-6.24 273.28-6.24Q277.28-6.24 279.36-4.36Q281.44-2.48 281.44 1Q281.44 4.48 279.44 6.56Q277.44 8.64 273.20 8.64" transform="matrix(1,0,0,1,-163.39999389648438,-26.1200008392334)" style="transform:matrix(1, 0, 0, 1, -163.4, -26.12);;animation:none"></path></g>
<g class="path" style="transform-origin:109.76px 7.08px;transform:matrix(0.91, 0, 0, 0.91, 0, 0);animation-duration:33.3333s;animation-timing-function:linear;animation-delay:-2.2s;animation-iteration-count:infinite;animation-direction:normal;animation-fill-mode:forwards;animation-play-state:paused;animation-name:animate-337o0vhmt8y;animation-timeline:auto;animation-range-start:normal;animation-range-end:normal;transform-box:view-box;;animation:none"><path d="M261.12 15.60L261.12 14.16L280.72 14.16L280.72 50.80L285.20 50.80L285.20 52.24L261.44 52.24L261.44 50.80L265.84 50.80L265.84 15.60L261.12 15.60" transform="matrix(1,0,0,1,-163.39999389648438,-26.1200008392334)" style="transform:matrix(1, 0, 0, 1, -163.4, -26.12);;animation:none"></path></g>
<g class="path" style="transform-origin:144.32px 7.08px;transform:matrix(0.91, 0, 0, 0.91, 0, 0);animation-duration:33.3333s;animation-timing-function:linear;animation-delay:0s;animation-iteration-count:infinite;animation-direction:normal;animation-fill-mode:forwards;animation-play-state:paused;animation-name:animate-337o0vhmt8y;animation-timeline:auto;animation-range-start:normal;animation-range-end:normal;transform-box:view-box;;animation:none"><path d="M312.64 36.48L312.64 36.48L312.64 29.68Q312.64 21.92 311.80 18.36Q310.96 14.80 307.92 14.80L307.92 14.80Q306.16 14.80 305.08 15.80Q304 16.80 303.52 19.12L303.52 19.12Q302.80 22.72 302.80 30.08L302.80 30.08L302.80 36.32Q302.80 45.04 303.32 46.80Q303.84 48.56 304.40 49.68L304.40 49.68Q305.28 51.60 307.84 51.60L307.84 51.60Q310.96 51.60 311.92 48L311.92 48Q312.64 45.44 312.64 36.48 zM307.68 53.04Q297.68 53.04 292.56 47.92Q287.44 42.80 287.44 33.24Q287.44 23.68 292.92 18.52Q298.40 13.36 308.32 13.36Q318.24 13.36 323.12 18.12Q328 22.88 328 32.64L328 32.64Q328 53.04 307.68 53.04L307.68 53.04" transform="matrix(1,0,0,1,-163.39999389648438,-26.1200008392334)" style="transform:matrix(1, 0, 0, 1, -163.4, -26.12);;animation:none"></path></g></g>
<text dy="0.35em" fill="#000000" font-family="Abril Fatface" font-size="68" style="fill:rgb(0, 0, 0);opacity:0;;animation:none">Portfolio</text></g></g>
<STYLE type="text/css">@keyframes animate-337o0vhmt8y { 0.00% {transform: translate(0.00px,0.00px) rotate(0.00deg) scale(0.91, 0.91) skew(0deg, 0.00deg) ;opacity: 1.00;}4.00% {transform: translate(0.00px,0.00px) rotate(0.00deg) scale(0.91, 0.91) ;}8.00% {animation-timing-function: cubic-bezier(0.69,0.60,0.35,0.27);transform: translate(0.00px,0.00px) rotate(0.00deg) scale(0.91, 0.91) ;}14.00% {transform: translate(0.00px,0.00px) rotate(0.00deg) scale(0.93, 0.93) ;}18.00% {transform: translate(0.00px,0.00px) rotate(0.00deg) scale(0.94, 0.94) ;}22.00% {animation-timing-function: cubic-bezier(0.67,0.66,0.34,0.33);transform: translate(0.00px,0.00px) rotate(0.00deg) scale(0.96, 0.96) ;}26.00% {transform: translate(0.00px,0.00px) rotate(0.00deg) scale(0.97, 0.97) ;}30.00% {transform: translate(0.00px,0.00px) rotate(0.00deg) scale(0.99, 0.99) ;}34.00% {animation-timing-function: cubic-bezier(0.65,0.71,0.32,0.38);transform: translate(0.00px,0.00px) rotate(0.00deg) scale(1.01, 1.01) ;}40.00% {animation-timing-function: cubic-bezier(0.64,0.74,0.31,0.41);transform: translate(0.00px,0.00px) rotate(0.00deg) scale(1.02, 1.02) ;}46.00% {animation-timing-function: cubic-bezier(0.60,0.91,0.23,0.63);transform: translate(0.00px,0.00px) rotate(0.00deg) scale(1.03, 1.03) ;}50.00% {transform: translate(0.00px,0.00px) rotate(0.00deg) scale(1.03, 1.03) ;}54.00% {transform: translate(0.00px,0.00px) rotate(0.00deg) scale(1.03, 1.03) ;}58.00% {animation-timing-function: cubic-bezier(0.69,0.60,0.35,0.27);transform: translate(0.00px,0.00px) rotate(0.00deg) scale(1.03, 1.03) ;}64.00% {transform: translate(0.00px,0.00px) rotate(0.00deg) scale(1.01, 1.01) ;}68.00% {transform: translate(0.00px,0.00px) rotate(0.00deg) scale(1.00, 1.00) ;}72.00% {animation-timing-function: cubic-bezier(0.67,0.66,0.34,0.33);transform: translate(0.00px,0.00px) rotate(0.00deg) scale(0.98, 0.98) ;}76.00% {animation-timing-function: cubic-bezier(0.66,0.68,0.33,0.35);transform: translate(0.00px,0.00px) rotate(0.00deg) scale(0.97, 0.97) ;}82.00% {animation-timing-function: cubic-bezier(0.65,0.71,0.32,0.38);transform: translate(0.00px,0.00px) rotate(0.00deg) scale(0.94, 0.94) ;}88.00% {animation-timing-function: cubic-bezier(0.65,0.73,0.31,0.40);transform: translate(0.00px,0.00px) rotate(0.00deg) scale(0.92, 0.92) ;}94.00% {animation-timing-function: cubic-bezier(0.63,0.80,0.28,0.48);transform: translate(0.00px,0.00px) rotate(0.00deg) scale(0.91, 0.91) ;}100.00% {animation-timing-function: cubic-bezier(0.63,0.80,0.28,0.48);transform: translate(0.00px,0.00px) rotate(0.00deg) scale(0.91, 0.91) ;} }</STYLE><!-- [ldio] generated by https://loading.io --></svg>